<mxfile host="app.diagrams.net" modified="2023-12-29T16:36:11.116Z" agent="Mozilla/5.0 (X11; Linux x86_64) AppleWebKit/537.36 (KHTML, like Gecko) Chrome/120.0.0.0 Safari/537.36" etag="tDZ5CDi48VpXMsYUckS6" version="22.1.16" type="google">
  <diagram name="010-data-management" id="O0EzCrE9_i2seC9WDiSg">
    <mxGraphModel grid="1" page="1" gridSize="10" guides="1" tooltips="1" connect="1" arrows="1" fold="1" pageScale="1" pageWidth="827" pageHeight="1169" math="0" shadow="0">
      <root>
        <mxCell id="0" />
        <mxCell id="1" parent="0" />
        <mxCell id="VSZ_r1YbwB4cjB5XSmfl-58" value="&lt;div&gt;&lt;i&gt;This work is licensed under a&lt;/i&gt;&lt;/div&gt;&lt;div&gt;&lt;b&gt;&lt;i&gt;Creative Commons Attribution 4.0 International License&lt;/i&gt;&lt;/b&gt;&lt;/div&gt;" style="text;html=1;strokeColor=none;fillColor=none;align=center;verticalAlign=middle;whiteSpace=wrap;rounded=0;fontSize=20;fontFamily=Architects Daughter;" vertex="1" parent="1">
          <mxGeometry x="-77" y="880" width="970" height="60" as="geometry" />
        </mxCell>
        <mxCell id="uGDJzxATfRtUVQdLvZK3-1" value="" style="ellipse;whiteSpace=wrap;html=1;aspect=fixed;sketch=1;hachureGap=4;jiggle=2;curveFitting=1;fontFamily=Architects Daughter;fontSource=https%3A%2F%2Ffonts.googleapis.com%2Fcss%3Ffamily%3DArchitects%2BDaughter;fontSize=20;fillColor=#3399FF;" vertex="1" parent="1">
          <mxGeometry x="200" y="315" width="130" height="130" as="geometry" />
        </mxCell>
        <mxCell id="uGDJzxATfRtUVQdLvZK3-2" value="&lt;b&gt;Business&lt;/b&gt;" style="ellipse;whiteSpace=wrap;html=1;aspect=fixed;sketch=1;hachureGap=4;jiggle=2;curveFitting=1;fontFamily=Architects Daughter;fontSource=https%3A%2F%2Ffonts.googleapis.com%2Fcss%3Ffamily%3DArchitects%2BDaughter;fontSize=20;fillColor=#FF8000;" vertex="1" parent="1">
          <mxGeometry x="205" y="150" width="120" height="120" as="geometry" />
        </mxCell>
        <mxCell id="uGDJzxATfRtUVQdLvZK3-3" value="" style="ellipse;whiteSpace=wrap;html=1;aspect=fixed;sketch=1;hachureGap=4;jiggle=2;curveFitting=1;fontFamily=Architects Daughter;fontSource=https%3A%2F%2Ffonts.googleapis.com%2Fcss%3Ffamily%3DArchitects%2BDaughter;fontSize=20;fillColor=#3399FF;" vertex="1" parent="1">
          <mxGeometry x="480" y="240" width="160" height="160" as="geometry" />
        </mxCell>
        <mxCell id="uGDJzxATfRtUVQdLvZK3-4" value="" style="ellipse;whiteSpace=wrap;html=1;aspect=fixed;sketch=1;hachureGap=4;jiggle=2;curveFitting=1;fontFamily=Architects Daughter;fontSource=https%3A%2F%2Ffonts.googleapis.com%2Fcss%3Ffamily%3DArchitects%2BDaughter;fontSize=20;fillColor=#FF8000;" vertex="1" parent="1">
          <mxGeometry x="480" y="160" width="160" height="160" as="geometry" />
        </mxCell>
        <mxCell id="uGDJzxATfRtUVQdLvZK3-5" value="Business" style="text;html=1;strokeColor=none;fillColor=none;align=center;verticalAlign=middle;whiteSpace=wrap;rounded=0;fontSize=20;fontFamily=Architects Daughter;fontStyle=1" vertex="1" parent="1">
          <mxGeometry x="530" y="190" width="60" height="30" as="geometry" />
        </mxCell>
        <mxCell id="uGDJzxATfRtUVQdLvZK3-6" value="IT" style="text;html=1;strokeColor=none;fillColor=none;align=center;verticalAlign=middle;whiteSpace=wrap;rounded=0;fontSize=20;fontFamily=Architects Daughter;fontStyle=1" vertex="1" parent="1">
          <mxGeometry x="530" y="340" width="60" height="30" as="geometry" />
        </mxCell>
        <mxCell id="uGDJzxATfRtUVQdLvZK3-7" value="Data Teams" style="ellipse;whiteSpace=wrap;html=1;aspect=fixed;sketch=1;hachureGap=4;jiggle=2;curveFitting=1;fontFamily=Architects Daughter;fontSource=https%3A%2F%2Ffonts.googleapis.com%2Fcss%3Ffamily%3DArchitects%2BDaughter;fontSize=20;fillColor=#3399FF;fontStyle=1" vertex="1" parent="1">
          <mxGeometry x="225" y="300" width="80" height="80" as="geometry" />
        </mxCell>
        <mxCell id="uGDJzxATfRtUVQdLvZK3-8" value="IT" style="text;html=1;strokeColor=none;fillColor=none;align=center;verticalAlign=middle;whiteSpace=wrap;rounded=0;fontSize=20;fontFamily=Architects Daughter;fontStyle=1" vertex="1" parent="1">
          <mxGeometry x="235" y="385" width="60" height="30" as="geometry" />
        </mxCell>
        <mxCell id="uGDJzxATfRtUVQdLvZK3-9" value="Data Teams" style="text;html=1;strokeColor=none;fillColor=none;align=center;verticalAlign=middle;whiteSpace=wrap;rounded=0;fontSize=20;fontFamily=Architects Daughter;fontStyle=1" vertex="1" parent="1">
          <mxGeometry x="530" y="265" width="60" height="30" as="geometry" />
        </mxCell>
        <mxCell id="uGDJzxATfRtUVQdLvZK3-10" value="Ingest" style="shape=process;whiteSpace=wrap;html=1;backgroundOutline=1;sketch=1;hachureGap=4;jiggle=2;curveFitting=1;fontFamily=Architects Daughter;fontSource=https%3A%2F%2Ffonts.googleapis.com%2Fcss%3Ffamily%3DArchitects%2BDaughter;fontSize=20;fontStyle=3;fillColor=#3399FF;" vertex="1" parent="1">
          <mxGeometry x="226" y="610" width="120" height="60" as="geometry" />
        </mxCell>
        <mxCell id="uGDJzxATfRtUVQdLvZK3-11" value="Indentify" style="shape=process;whiteSpace=wrap;html=1;backgroundOutline=1;sketch=1;hachureGap=4;jiggle=2;curveFitting=1;fontFamily=Architects Daughter;fontSource=https%3A%2F%2Ffonts.googleapis.com%2Fcss%3Ffamily%3DArchitects%2BDaughter;fontSize=20;fontStyle=1;fillColor=#006600;" vertex="1" parent="1">
          <mxGeometry x="461" y="610" width="140" height="60" as="geometry" />
        </mxCell>
        <mxCell id="uGDJzxATfRtUVQdLvZK3-12" value="Process" style="shape=process;whiteSpace=wrap;html=1;backgroundOutline=1;sketch=1;hachureGap=4;jiggle=2;curveFitting=1;fontFamily=Architects Daughter;fontSource=https%3A%2F%2Ffonts.googleapis.com%2Fcss%3Ffamily%3DArchitects%2BDaughter;fontSize=20;fontStyle=3;fillColor=#3399FF;" vertex="1" parent="1">
          <mxGeometry x="226" y="695" width="120" height="60" as="geometry" />
        </mxCell>
        <mxCell id="uGDJzxATfRtUVQdLvZK3-13" value="Define" style="shape=process;whiteSpace=wrap;html=1;backgroundOutline=1;sketch=1;hachureGap=4;jiggle=2;curveFitting=1;fontFamily=Architects Daughter;fontSource=https%3A%2F%2Ffonts.googleapis.com%2Fcss%3Ffamily%3DArchitects%2BDaughter;fontSize=20;fontStyle=1;fillColor=#006600;" vertex="1" parent="1">
          <mxGeometry x="461" y="695" width="140" height="60" as="geometry" />
        </mxCell>
        <mxCell id="uGDJzxATfRtUVQdLvZK3-14" value="Share" style="shape=process;whiteSpace=wrap;html=1;backgroundOutline=1;sketch=1;hachureGap=4;jiggle=2;curveFitting=1;fontFamily=Architects Daughter;fontSource=https%3A%2F%2Ffonts.googleapis.com%2Fcss%3Ffamily%3DArchitects%2BDaughter;fontSize=20;fontStyle=3;fillColor=#3399FF;" vertex="1" parent="1">
          <mxGeometry x="226" y="775" width="120" height="60" as="geometry" />
        </mxCell>
        <mxCell id="uGDJzxATfRtUVQdLvZK3-15" value="Standardize" style="shape=process;whiteSpace=wrap;html=1;backgroundOutline=1;sketch=1;hachureGap=4;jiggle=2;curveFitting=1;fontFamily=Architects Daughter;fontSource=https%3A%2F%2Ffonts.googleapis.com%2Fcss%3Ffamily%3DArchitects%2BDaughter;fontSize=20;fontStyle=1;fillColor=#006600;" vertex="1" parent="1">
          <mxGeometry x="461" y="775" width="140" height="60" as="geometry" />
        </mxCell>
        <mxCell id="uGDJzxATfRtUVQdLvZK3-16" value="Data Management" style="shape=step;perimeter=stepPerimeter;whiteSpace=wrap;html=1;fixedSize=1;sketch=1;hachureGap=4;jiggle=2;curveFitting=1;fontFamily=Architects Daughter;fontSource=https%3A%2F%2Ffonts.googleapis.com%2Fcss%3Ffamily%3DArchitects%2BDaughter;fontSize=20;fontStyle=1" vertex="1" parent="1">
          <mxGeometry x="200" y="500" width="440" height="35" as="geometry" />
        </mxCell>
        <mxCell id="uGDJzxATfRtUVQdLvZK3-17" value="Organizational Shift" style="text;html=1;strokeColor=none;fillColor=none;align=center;verticalAlign=middle;whiteSpace=wrap;rounded=0;fontSize=20;fontFamily=Architects Daughter;" vertex="1" parent="1">
          <mxGeometry x="200" y="450" width="440" height="30" as="geometry" />
        </mxCell>
        <mxCell id="uGDJzxATfRtUVQdLvZK3-18" value="Vocabulary shift" style="text;html=1;strokeColor=none;fillColor=none;align=center;verticalAlign=middle;whiteSpace=wrap;rounded=0;fontSize=20;fontFamily=Architects Daughter;" vertex="1" parent="1">
          <mxGeometry x="200" y="545" width="440" height="30" as="geometry" />
        </mxCell>
        <mxCell id="uGDJzxATfRtUVQdLvZK3-19" value="" style="ellipse;whiteSpace=wrap;html=1;sketch=1;hachureGap=4;jiggle=2;curveFitting=1;fontFamily=Architects Daughter;fontSource=https%3A%2F%2Ffonts.googleapis.com%2Fcss%3Ffamily%3DArchitects%2BDaughter;fontSize=20;fillColor=#006600;strokeColor=none;" vertex="1" parent="1">
          <mxGeometry x="490" y="240" width="140" height="80" as="geometry" />
        </mxCell>
        <mxCell id="uGDJzxATfRtUVQdLvZK3-20" value="" style="shape=step;perimeter=stepPerimeter;whiteSpace=wrap;html=1;fixedSize=1;sketch=1;hachureGap=4;jiggle=2;curveFitting=1;fontFamily=Architects Daughter;fontSource=https%3A%2F%2Ffonts.googleapis.com%2Fcss%3Ffamily%3DArchitects%2BDaughter;fontSize=20;" vertex="1" parent="1">
          <mxGeometry x="386" y="240" width="56" height="80" as="geometry" />
        </mxCell>
        <mxCell id="uGDJzxATfRtUVQdLvZK3-21" value="" style="shape=step;perimeter=stepPerimeter;whiteSpace=wrap;html=1;fixedSize=1;sketch=1;hachureGap=4;jiggle=2;curveFitting=1;fontFamily=Architects Daughter;fontSource=https%3A%2F%2Ffonts.googleapis.com%2Fcss%3Ffamily%3DArchitects%2BDaughter;fontSize=20;" vertex="1" parent="1">
          <mxGeometry x="380" y="685" width="56" height="80" as="geometry" />
        </mxCell>
      </root>
    </mxGraphModel>
  </diagram>
</mxfile>
